<svg width="403" height="172" viewBox="0 0 403 172" fill="none" xmlns="http://www.w3.org/2000/svg">
<path d="M332.722 162.923C333.031 162.408 333.315 161.898 333.647 161.335C335.799 155.442 335.028 151.808 334.056 149.603C330.215 140.995 319.716 136.383 296.614 132.648C294.924 132.387 284.372 129.062 280.223 118.966C277.507 112.41 279.037 105.853 280.122 101.911C283.809 87.9737 292.055 86.794 296.46 75.323C300.1 65.8379 299.946 52.3691 292.826 42.3268C283.934 29.7236 267.009 26.6528 254.56 29.1604C242.371 31.6206 233.971 39.8726 229.768 44.8878C226.409 37.3236 221.799 30.3794 216.133 24.3467C198.971 6.05836 172.698 -2.59675 148.825 0.681524C122.148 4.36884 105.597 21.9933 97.2973 30.8559C50.7375 80.599 81.5005 161.335 0.500488 171.353H403.001C385.275 168.816 357.466 165.994 332.722 162.923Z" fill="#00628B"/>
</svg>
